<mxfile host="app.diagrams.net" modified="2023-06-13T19:07:28.062Z" agent="Mozilla/5.0 (Windows NT 10.0; Win64; x64) AppleWebKit/537.36 (KHTML, like Gecko) Chrome/113.0.0.0 Safari/537.36" version="21.3.3" etag="_wkoPtdvqjIHL-x5thly" type="github">
  <diagram name="Page-1" id="p0PPOyfPPaqDp45HG9_p">
    <mxGraphModel>
      <root>
        <mxCell id="0" />
        <mxCell id="1" parent="0" />
      </root>
    </mxGraphModel>
  </diagram>
</mxfile>
